<svg xmlns="http://www.w3.org/2000/svg" width="40" height="40" viewBox="0 0 40 40">
    <g fill="#050824">
        <path d="M27.083 12.121c-.43 0-.78.35-.78.78 0 .432.35.782.78.782.431 0 .78-.35.78-.781 0-.432-.349-.781-.78-.781zM12.916 26.316c-.432 0-.78.35-.78.78 0 .433.348.782.78.782.43 0 .78-.349.78-.781 0-.431-.35-.781-.78-.781z"/>
        <path d="M38.99 4.806c-.262-.061-.539.019-.729.21L35.03 8.282h-1.55l-1.706-1.77V4.935l3.186-3.24c.189-.192.265-.467.203-.73-.062-.261-.255-.473-.51-.559-.8-.27-1.637-.407-2.49-.407-2.539 0-4.846 1.187-6.33 3.255-1.388 1.937-1.815 4.31-1.202 6.582l-5.744 5.754-9.569-9.609V4.096c0-.274-.143-.529-.378-.67L3.426.111c-.307-.184-.7-.136-.953.118L.268 2.438c-.253.254-.301.647-.117.955l3.308 5.524c.14.235.394.379.668.379h1.881l9.57 9.61-5.721 5.733c-2.267-.614-4.637-.185-6.571 1.207C1.222 27.33.039 29.642.039 32.186c0 .854.137 1.694.407 2.495.086.257.299.45.562.512.263.061.54-.018.73-.21l3.232-3.265h1.558l1.776 1.779v1.561l-3.258 3.239c-.192.19-.271.467-.21.731.06.264.254.477.51.564.8.27 1.638.407 2.49.407 2.54 0 4.846-1.186 6.329-3.253 1.389-1.938 1.817-4.312 1.204-6.584l4.596-4.604 1.052 1.146-.483.483c-.304.306-.304.8 0 1.106.305.304.798.304 1.103 0l.438-.439 9.876 10.75.022.022c1.828 1.831 4.789 1.832 6.617 0 1.823-1.828 1.823-4.802 0-6.63l-.024-.022-10.745-9.877.433-.433c.304-.305.304-.8 0-1.105-.305-.305-.798-.305-1.103 0l-.48.48-1.146-1.053 4.618-4.626c.656.176 1.334.265 2.02.265 4.3 0 7.797-3.505 7.797-7.813 0-.853-.137-1.692-.407-2.494-.086-.257-.299-.45-.562-.512zM6.885 7.964c-.146-.147-.345-.222-.552-.222H4.57L1.8 3.111l1.344-1.347L7.758 4.54v1.767c0 .206.082.405.228.551l9.798 9.84L16.68 17.8 6.884 7.964zm19.833 15.239l10.781 9.91c1.205 1.22 1.201 3.194-.01 4.409-1.215 1.217-3.182 1.22-4.401.01l-9.909-10.784 3.54-3.545zm-1.15-1.058l-3.446 3.453-1.053-1.146 3.354-3.36 1.145 1.053zm6.596-8.083c-.682 0-1.353-.11-1.993-.325-.28-.095-.59-.022-.8.188L13.936 29.388c-.21.21-.282.52-.187.802.648 1.929.338 3.985-.851 5.644-1.186 1.654-3.031 2.603-5.062 2.603-.228 0-.455-.013-.68-.037l2.477-2.462c.147-.147.23-.346.23-.555v-2.21c0-.207-.082-.406-.228-.552l-2.232-2.237c-.147-.146-.345-.229-.552-.229H4.645c-.208 0-.407.084-.553.231l-2.457 2.482c-.025-.225-.037-.453-.037-.681 0-2.036.947-3.884 2.598-5.072 1.655-1.192 3.708-1.503 5.633-.853.28.095.59.022.8-.188l15.433-15.463c.21-.21.282-.52.188-.802-.648-1.928-.339-3.985.85-5.642 1.186-1.655 3.031-2.604 5.063-2.604.235 0 .468.013.7.038l-2.425 2.466c-.144.147-.224.343-.224.548v2.21c0 .203.078.398.218.543l2.155 2.237c.146.152.349.238.56.238h2.206c.208 0 .407-.083.554-.23l2.457-2.482c.024.226.036.453.036.681 0 3.447-2.798 6.25-6.237 6.25z"/>
        <path d="M24.327 14.559l-9.758 9.776c-.304.305-.304.8 0 1.105.305.305.799.305 1.103 0l9.757-9.776c.305-.305.305-.8 0-1.105-.304-.305-.798-.305-1.102 0zM34.18 35.313c.304.304.798.304 1.103-.002.304-.306.303-.8-.002-1.105l-7.028-7.02c-.305-.304-.8-.303-1.103.002-.304.306-.303.8.002 1.105l7.028 7.02z"/>
    </g>
</svg>
