<svg xmlns="http://www.w3.org/2000/svg" width="30" height="41" viewBox="0 0 30 41">
    <g fill="#050824">
        <path d="M8.684 25.737c-.436 0-.79.354-.79.79 0 .435.354.789.79.789.436 0 .79-.354.79-.79 0-.435-.354-.79-.79-.79z"/>
        <path d="M27.632 3.158h-8.764C18.501 1.358 16.906 0 15 0s-3.501 1.358-3.868 3.158H2.368C1.062 3.158 0 4.22 0 5.526v32.527c0 1.306 1.062 2.368 2.368 2.368h25.264c1.306 0 2.368-1.062 2.368-2.368V5.526c0-1.306-1.062-2.368-2.368-2.368zM9.474 4.737h2.368c.436 0 .79-.354.79-.79 0-1.306 1.062-2.368 2.368-2.368 1.306 0 2.368 1.062 2.368 2.368 0 .436.354.79.79.79h2.368v1.579H9.474v-1.58zm15.79 3.158v27.79H4.736V7.894h20.526zm3.157 30.158c0 .435-.354.79-.79.79H2.369c-.435 0-.79-.355-.79-.79V5.526c0-.435.355-.79.79-.79h5.527v1.58H3.947c-.436 0-.79.353-.79.79v29.368c0 .436.354.79.79.79h22.106c.436 0 .79-.354.79-.79V7.105c0-.436-.354-.79-.79-.79h-3.948V4.738h5.527c.435 0 .79.354.79.79v32.526z"/>
        <path d="M21.316 30.474H8.684c-.436 0-.79.353-.79.79 0 .435.354.789.79.789h12.632c.436 0 .79-.354.79-.79 0-.436-.354-.79-.79-.79zM21.316 25.737h-9.474c-.436 0-.79.353-.79.79 0 .435.354.789.79.789h9.474c.436 0 .79-.354.79-.79 0-.436-.354-.79-.79-.79zM15 11.526c-3.047 0-5.526 2.48-5.526 5.527s2.479 5.526 5.526 5.526c3.047 0 5.526-2.48 5.526-5.526 0-3.048-2.479-5.527-5.526-5.527zM15 21c-2.177 0-3.947-1.77-3.947-3.947s1.77-3.948 3.947-3.948 3.947 1.771 3.947 3.948C18.947 19.229 17.177 21 15 21z"/>
    </g>
</svg>
