<svg xmlns="http://www.w3.org/2000/svg" width="40" height="40" viewBox="0 0 40 40">
    <g fill="#050824">
        <path d="M39.733 19.254C36.098 14.824 28.401 9.655 20 9.655c-8.43 0-16.128 5.205-19.733 9.599-.356.434-.356 1.058 0 1.492C3.989 25.283 11.704 30.345 20 30.345c8.591 0 16.255-5.362 19.733-9.599.356-.434.356-1.058 0-1.492zM27.992 20c0 4.407-3.585 7.992-7.992 7.992S12.008 24.406 12.008 20c0-4.407 3.585-7.992 7.992-7.992s7.992 3.586 7.992 7.992zM2.766 20c1.324-1.376 4.517-4.346 8.999-6.252-2.813 3.696-2.814 8.805-.002 12.503C8.355 24.806 5.19 22.524 2.766 20zm25.47 6.252c2.812-3.696 2.813-8.805 0-12.503 3.408 1.445 6.574 3.727 8.998 6.25-1.324 1.377-4.517 4.347-8.999 6.253z"/>
        <path d="M16 20c0 2.206 1.794 4 4 4s4-1.794 4-4-1.794-4-4-4-4 1.794-4 4zm5.647 0c0 .908-.739 1.647-1.647 1.647s-1.647-.739-1.647-1.647.739-1.647 1.647-1.647 1.647.739 1.647 1.647zM20 5.098c.65 0 1.176-.527 1.176-1.176V1.176C21.176.526 20.65 0 20 0c-.65 0-1.176.527-1.176 1.176v2.746c0 .65.526 1.176 1.176 1.176zM27.02 6.672c.564.321 1.282.125 1.604-.44l1.566-2.745c.322-.564.125-1.283-.439-1.604-.565-.322-1.283-.126-1.605.439l-1.565 2.745c-.322.564-.126 1.283.439 1.605zM11.376 6.232c.321.565 1.04.761 1.604.44.565-.322.761-1.04.44-1.605l-1.566-2.745c-.322-.565-1.04-.761-1.605-.44-.564.322-.76 1.04-.439 1.605l1.566 2.745zM20 34.902c-.65 0-1.176.527-1.176 1.176v2.746c0 .65.526 1.176 1.176 1.176.65 0 1.176-.527 1.176-1.176v-2.746c0-.65-.526-1.176-1.176-1.176zM12.98 33.329c-.564-.322-1.282-.126-1.604.439L9.81 36.513c-.322.564-.125 1.283.439 1.604.564.322 1.283.126 1.605-.439l1.565-2.745c.322-.564.126-1.283-.439-1.604zM28.624 33.768c-.321-.565-1.04-.761-1.604-.44-.565.322-.761 1.04-.44 1.605l1.566 2.745c.322.565 1.04.761 1.605.44.564-.322.76-1.04.439-1.605l-1.566-2.745z"/>
    </g>
</svg>
