<svg xmlns="http://www.w3.org/2000/svg" width="43" height="43" viewBox="0 0 43 43">
    <g fill="#050824">
        <path d="M7.853 18.147C7.76 18.053 7.631 18 7.5 18c-.131 0-.26.053-.353.147-.093.093-.146.221-.146.353 0 .132.053.26.146.353.093.093.222.147.353.147.133 0 .261-.054.354-.147.093-.093.147-.222.147-.353 0-.131-.053-.26-.147-.353z"/>
        <path d="M42.333 25.742l-3.278-3.279c.01-.015.025-.03.047-.037.69-.224 1.335-.622 1.863-1.15l.104-.104c1.698-1.7 1.825-4.337.283-5.88-1.543-1.542-4.18-1.415-5.878.284l-.104.103c-.528.529-.926 1.173-1.15 1.864-.007.022-.022.038-.037.047l-3.278-3.279c-.423-.423-.979-.642-1.554-.662-.021-.596-.253-1.14-.666-1.553l-3.258-3.26c-.373-.373-.916-.527-1.453-.414-.586.124-1.066.533-1.283 1.095-.15.39-.382.742-.688 1.049l-.104.103c-1.044 1.044-2.615 1.171-3.503.284-.416-.417-.624-1-.585-1.643.04-.681.35-1.342.869-1.861l.103-.104c.306-.306.66-.538 1.049-.688.561-.217.97-.697 1.094-1.284.114-.536-.041-1.08-.414-1.453L17.257.665c-.94-.94-2.532-.876-3.55.142L9.985 4.531c-.168-.633-.494-1.204-.95-1.66l-.092-.091c-1.542-1.543-4.18-1.416-5.878.283-1.7 1.7-1.826 4.337-.284 5.88l.092.09c.456.457 1.027.783 1.66.951L.81 13.708c-.48.48-.766 1.103-.805 1.754-.042.69.193 1.327.662 1.796l3.2 3.202c-.008.013-.022.027-.043.035-.61.235-1.158.595-1.631 1.068l-.103.103c-.81.81-1.292 1.857-1.358 2.948-.068 1.13.313 2.17 1.074 2.932.761.76 1.802 1.142 2.931 1.074 1.091-.066 2.138-.548 2.948-1.358l.103-.103c.473-.473.832-1.022 1.068-1.632.008-.02.022-.035.035-.043l3.205 3.205c.422.423.978.642 1.554.663.02.595.252 1.14.665 1.552l3.256 3.257.022.022c-.01.015-.025.03-.047.037-.69.225-1.335.623-1.863 1.15l-.104.104c-1.698 1.7-1.825 4.337-.283 5.88.761.76 1.801 1.142 2.931 1.074 1.091-.066 2.138-.548 2.947-1.358l.104-.103c.528-.528.925-1.173 1.15-1.864.007-.022.022-.037.037-.047l3.278 3.28c.445.444 1.037.664 1.644.664.675 0 1.37-.272 1.906-.807l3.644-3.645c.18.545.484 1.04.885 1.441l.091.092c1.543 1.543 4.18 1.415 5.879-.283 1.698-1.7 1.825-4.337.283-5.88l-.092-.092c-.4-.4-.896-.705-1.44-.885l3.647-3.649c.48-.48.766-1.103.805-1.754.042-.69-.193-1.327-.662-1.796zm-27.876 1.612l-.034.036c-.356.328-.87.382-1.14.111l-3.258-3.259c-.293-.293-.69-.451-1.107-.451-.114 0-.23.012-.346.036-.587.124-1.066.533-1.283 1.095-.15.39-.382.743-.689 1.05l-.103.102c-.52.52-1.18.828-1.86.87-.644.038-1.227-.17-1.643-.586-.416-.417-.624-1-.586-1.643.042-.68.35-1.342.87-1.86l.102-.104c.307-.307.66-.539 1.05-.69.56-.216.97-.696 1.094-1.282.113-.537-.042-1.08-.415-1.453L1.854 16.07c-.167-.167-.18-.39-.173-.507.015-.24.127-.478.316-.667l.658-.659 2.514 2.515c.164.164.38.246.594.246.215 0 .43-.082.594-.246.328-.328.328-.86 0-1.188L3.843 13.05l1.915-1.915c.454-.454.628-1.102.454-1.69-.16-.545-.589-.94-1.145-1.058-.394-.084-.733-.266-1.007-.54l-.091-.091c-.888-.888-.761-2.46.283-3.504s2.615-1.171 3.503-.284l.092.092c.274.274.455.613.539 1.007.118.556.513.984 1.057 1.145.589.175 1.237 0 1.691-.454l3.76-3.762c.358-.357.895-.422 1.175-.142l3.2 3.201c-.008.013-.022.027-.043.035-.61.236-1.158.595-1.631 1.069l-.103.103c-.81.81-1.292 1.856-1.358 2.948-.068 1.13.313 2.17 1.074 2.931 1.543 1.543 4.18 1.416 5.879-.283l.103-.103c.473-.474.832-1.023 1.068-1.632.008-.021.022-.035.035-.044l3.205 3.206c.167.167.18.39.173.507-.014.226-.115.449-.284.632l-.032.03-.04.045-3.72 3.721c-.455.455-.63 1.103-.455 1.691.16.544.589.94 1.145 1.058.394.084.733.265 1.007.54l.091.091c.888.888.76 2.46-.283 3.504-1.044 1.044-2.615 1.171-3.503.283l-.092-.091c-.274-.274-.455-.613-.539-1.007-.118-.556-.514-.985-1.057-1.146-.589-.174-1.237 0-1.691.455L14.5 27.315c-.015.013-.03.025-.044.04zm26.862.083c-.015.241-.127.478-.316.667l-3.678 3.678c-.439.44-.618 1.07-.467 1.644.139.53.536.934 1.062 1.08.34.095.634.266.876.508l.091.092c.888.888.761 2.46-.283 3.504s-2.615 1.17-3.503.283l-.092-.091c-.242-.243-.412-.537-.507-.876-.147-.527-.55-.924-1.08-1.063-.574-.151-1.204.028-1.644.468l-3.673 3.674c-.357.357-.894.422-1.174.142l-1.117-1.116 3.212-3.213c.328-.328.328-.86 0-1.188-.328-.328-.86-.328-1.187 0l-3.212 3.213-1.028-1.029c-.386-.386-.946-.537-1.498-.404-.595.143-1.082.593-1.27 1.174-.143.44-.4.854-.74 1.195l-.104.103c-.52.52-1.18.828-1.861.87-.642.038-1.226-.17-1.642-.586-.888-.888-.76-2.46.283-3.504l.103-.103c.342-.342.755-.598 1.195-.741.581-.189 1.031-.676 1.174-1.27.133-.553-.018-1.113-.404-1.499l-3.332-3.333c-.168-.167-.18-.39-.174-.507.014-.227.115-.45.285-.633l.031-.03 3.723-3.723c.168.633.494 1.203.95 1.66l.092.091c1.542 1.543 4.18 1.416 5.878-.283 1.699-1.7 1.826-4.337.283-5.88l-.091-.091c-.456-.456-1.027-.783-1.66-.95l3.723-3.724.034-.035c.356-.33.87-.383 1.14-.112l3.332 3.333c.386.386.946.537 1.498.404.595-.143 1.082-.592 1.27-1.174.143-.44.4-.853.741-1.195l.103-.103c1.044-1.044 2.616-1.172 3.503-.284.888.888.761 2.46-.283 3.504l-.103.103c-.342.342-.755.598-1.195.741-.581.189-1.03.676-1.174 1.27-.132.553.019 1.113.404 1.499l3.333 3.333c.167.167.18.39.173.507z"/>
        <path d="M31.854 33.147c-.094-.093-.222-.147-.354-.147-.132 0-.26.054-.354.147-.092.093-.146.222-.146.353 0 .132.053.26.146.353.093.093.222.147.354.147.132 0 .26-.054.354-.147.092-.093.146-.222.146-.353 0-.131-.054-.26-.146-.353z"/>
    </g>
</svg>
