<svg xmlns="http://www.w3.org/2000/svg" width="40" height="40" viewBox="0 0 40 40">
    <g fill="#050824">
        <path d="M35.69 0H4.31C1.933 0 0 1.934 0 4.31v31.38C0 38.067 1.933 40 4.31 40h31.38c2.377 0 4.31-1.933 4.31-4.31V4.31C40 1.934 38.067 0 35.69 0zM4.31 2.344h31.38c1.084 0 1.966.882 1.966 1.966v5.732H2.344V4.31c0-1.084.882-1.966 1.966-1.966zm31.38 35.312H4.31c-1.084 0-1.966-.882-1.966-1.966V12.386h35.312V35.69c0 1.084-.882 1.966-1.966 1.966z"/>
        <path d="M11.786 11.92v25.587c0 .943.525 1.707 1.172 1.707.647 0 1.172-.764 1.172-1.707V11.92c0-.942-.525-1.706-1.172-1.706-.647 0-1.172.764-1.172 1.706zM25.328 12.378v25.588c0 .942.525 1.706 1.172 1.706.647 0 1.172-.764 1.172-1.706V12.378c0-.942-.525-1.706-1.172-1.706-.647 0-1.172.764-1.172 1.706z"/>
        <path d="M37.514 17H2.486C1.666 17 1 17.525 1 18.172c0 .647.666 1.172 1.486 1.172h35.028c.82 0 1.486-.525 1.486-1.172 0-.647-.666-1.172-1.486-1.172zM37.514 24H2.486C1.666 24 1 24.525 1 25.172c0 .647.666 1.172 1.486 1.172h35.028c.82 0 1.486-.525 1.486-1.172 0-.647-.666-1.172-1.486-1.172zM37.514 31H2.486C1.666 31 1 31.525 1 32.172c0 .647.666 1.172 1.486 1.172h35.028c.82 0 1.486-.525 1.486-1.172 0-.647-.666-1.172-1.486-1.172z"/>
    </g>
</svg>
