<svg xmlns="http://www.w3.org/2000/svg" width="50" height="48" viewBox="0 0 50 48">
    <g fill="#FFF">
        <path d="M34.375 34.152c-.54 0-.977.441-.977.985s.438.986.977.986c.539 0 .977-.442.977-.986s-.438-.985-.977-.985zM25.977 16.805c0-.544-.438-.986-.977-.986-.539 0-.977.442-.977.986s.438.986.977.986c.539 0 .977-.442.977-.986zM15.625 36.123c.539 0 .977-.442.977-.986s-.438-.985-.977-.985c-.539 0-.977.441-.977.985s.438.986.977.986z"/>
        <path d="M49.42 40.806l-5.28-2.367V16.805c0-.39-.231-.752-.6-.91L25.978 8.271V1.035c0-.544-.438-.986-.977-.986-.54 0-.977.442-.977.986V8.27L6.46 15.895c-.349.146-.6.503-.6.91v21.634L.58 40.806c-.493.222-.715.804-.496 1.301.218.495.793.723 1.29.5l5.468-2.452 17.772 7.715c.235.102.523.108.772 0l17.772-7.715 5.469 2.453c.498.223 1.072-.008 1.289-.5.219-.498-.003-1.08-.496-1.302zm-25.397-30.39v2.446c0 .544.438.986.977.986.539 0 .977-.442.977-.986v-2.445l14.715 6.388L25 23.617 9.308 16.805l14.715-6.388zM12.948 36.339c-.22-.497-.796-.72-1.289-.5l-3.847 1.725V18.301l16.211 7.038v20.129l-14.75-6.403 3.18-1.425c.492-.222.714-.804.495-1.302zm13.029 9.13v-20.13l16.21-7.037v19.262l-3.846-1.725c-.493-.22-1.07.003-1.29.5-.218.498.004 1.08.497 1.302l3.178 1.425-14.75 6.403z"/>
    </g>
</svg>
