<svg xmlns="http://www.w3.org/2000/svg" width="40" height="40" viewBox="0 0 40 40">
    <g fill="#050824">
        <path d="M35.69 0H4.31C1.933 0 0 1.934 0 4.31v31.38C0 38.067 1.933 40 4.31 40h31.38c2.377 0 4.31-1.933 4.31-4.31V4.31C40 1.934 38.067 0 35.69 0zM4.31 2.344h31.38c1.084 0 1.966.882 1.966 1.966v5.732H2.344V4.31c0-1.084.882-1.966 1.966-1.966zm31.38 35.312H4.31c-1.084 0-1.966-.882-1.966-1.966V12.386h35.312V35.69c0 1.084-.882 1.966-1.966 1.966z"/>
        <path d="M11.213 7.365h17.573c.648 0 1.172-.525 1.172-1.172 0-.647-.524-1.172-1.172-1.172H11.213c-.647 0-1.171.525-1.171 1.172 0 .647.524 1.172 1.171 1.172zM6.193 23.682h5.02c.648 0 1.173-.524 1.173-1.172v-5.02c0-.648-.525-1.172-1.172-1.172H6.193c-.647 0-1.172.524-1.172 1.172v5.02c0 .648.524 1.172 1.172 1.172zm1.172-5.02h2.677v2.677H7.365V18.66zM33.807 21.339H16.234c-.647 0-1.171.524-1.171 1.171 0 .648.524 1.172 1.171 1.172h17.573c.647 0 1.172-.524 1.172-1.172 0-.647-.525-1.171-1.172-1.171zM33.807 26.36H6.193c-.647 0-1.172.524-1.172 1.171s.525 1.172 1.172 1.172h27.614c.647 0 1.172-.525 1.172-1.172 0-.647-.525-1.171-1.172-1.171zM33.807 31.38H6.193c-.647 0-1.172.525-1.172 1.172 0 .647.525 1.172 1.172 1.172h27.614c.647 0 1.172-.525 1.172-1.172 0-.647-.525-1.172-1.172-1.172zM33.807 16.318H16.234c-.647 0-1.171.524-1.171 1.172 0 .647.524 1.171 1.171 1.171h17.573c.647 0 1.172-.524 1.172-1.171 0-.648-.525-1.172-1.172-1.172z"/>
    </g>
</svg>
