<svg xmlns="http://www.w3.org/2000/svg" width="50" height="49" viewBox="0 0 50 49">
    <g fill="#FFF">
        <path d="M8.314 29.703h6.856c.484 0 .876-.391.876-.874 0-.482-.392-.873-.876-.873H8.314c-3.619 0-6.564-2.938-6.564-6.55 0-3.363 2.525-6.163 5.872-6.514.275-.028.52-.185.66-.421.142-.237.163-.526.058-.78-.308-.743-.463-1.526-.463-2.33 0-3.37 2.749-6.113 6.126-6.113 1.711 0 3.36.729 4.52 1.999.187.204.457.314.736.28.276-.028.521-.185.663-.423 1.998-3.35 5.51-5.35 9.397-5.35 6.033 0 10.94 4.898 10.94 10.918 0 .386-.024.79-.075 1.237-.03.259.092.513.272.7.18.188.466.28.728.265.13-.009.257-.019.389-.019 3.62 0 6.564 2.938 6.564 6.55 0 3.613-2.945 6.55-6.564 6.55H31.508c-.484 0-.875.392-.875.874 0 .483.391.874.875.874h10.065c4.584 0 8.314-3.722 8.314-8.297 0-4.432-3.5-8.063-7.886-8.286.006-.152.01-.301.01-.448C42.01 5.689 36.316.007 29.318.007c-4.08 0-7.937 2.007-10.307 5.298-1.403-1.157-3.178-1.804-5.009-1.804-4.343 0-7.877 3.527-7.877 7.86 0 .671.085 1.332.253 1.974C2.676 14.209 0 17.508 0 21.405c0 4.576 3.73 8.298 8.314 8.298z"/>
        <path d="M22.755 41.93c.484 0 .876-.39.876-.873V18.349h7.126c.391 1.502 1.75 2.62 3.376 2.62 1.93 0 3.501-1.568 3.501-3.494 0-1.926-1.57-3.493-3.5-3.493-1.627 0-2.986 1.118-3.377 2.62h-8.002c-.483 0-.874.391-.874.873v22.708H4.376V37.44c1.505-.39 2.626-1.746 2.626-3.37 0-1.926-1.57-3.493-3.5-3.493C1.57 30.576 0 32.143 0 34.07c0 1.623 1.12 2.979 2.626 3.37v3.617c0 .482.391.873.875.873h19.254zm11.378-26.201c.966 0 1.75.783 1.75 1.746 0 .964-.784 1.747-1.75 1.747-.965 0-1.75-.783-1.75-1.747 0-.963.785-1.746 1.75-1.746zM1.75 34.069c0-.963.786-1.746 1.751-1.746.965 0 1.75.783 1.75 1.747 0 .963-.785 1.746-1.75 1.746s-1.75-.783-1.75-1.746z"/>
        <path d="M13.128 34.07c-.483 0-.875.39-.875.873s.392.873.875.873h6.127c.483 0 .875-.39.875-.873v-10.48c0-.205-.072-.403-.203-.56l-3.834-4.591c.334-.535.536-1.16.536-1.837 0-1.926-1.57-3.493-3.501-3.493-1.93 0-3.5 1.567-3.5 3.493s1.57 3.494 3.5 3.494c.616 0 1.187-.174 1.691-.454l3.56 4.263v9.292h-5.251zm-1.75-16.595c0-.963.785-1.746 1.75-1.746.966 0 1.75.783 1.75 1.746 0 .338-.1.65-.267.918-.104.034-.204.084-.293.158-.129.107-.204.248-.254.395-.27.173-.59.276-.936.276-.965 0-1.75-.783-1.75-1.747zM47.262 34.07h-18.38v-7.111c1.506-.391 2.626-1.747 2.626-3.37 0-1.926-1.571-3.493-3.501-3.493s-3.5 1.567-3.5 3.493c0 1.623 1.119 2.979 2.624 3.37v7.984c0 .483.393.873.876.873h19.255c.483 0 .875-.39.875-.873 0-.482-.392-.873-.875-.873zM26.257 23.589c0-.963.784-1.747 1.75-1.747.965 0 1.75.784 1.75 1.747 0 .963-.785 1.747-1.75 1.747-.966 0-1.75-.784-1.75-1.747zM46.386 44.55h-6.494l-3.248-5.673c-.156-.272-.446-.44-.76-.44h-7.877c-.483 0-.876.39-.876.873s.393.873.876.873h7.37l3.248 5.674c.155.272.446.44.76.44h7.001c.483 0 .876-.391.876-.873 0-.483-.393-.874-.876-.874zM35.009 44.55h-2.75c-.392-1.502-1.75-2.62-3.377-2.62-1.626 0-2.985 1.118-3.377 2.62H4.376c-.483 0-.875.391-.875.874 0 .482.392.873.875.873h21.13c.39 1.503 1.75 2.62 3.376 2.62s2.985-1.117 3.377-2.62h2.75c.483 0 .875-.391.875-.873 0-.483-.392-.874-.875-.874zm-6.127 2.62c-.965 0-1.75-.783-1.75-1.746 0-.964.785-1.747 1.75-1.747s1.75.783 1.75 1.747c0 .963-.785 1.746-1.75 1.746z"/>
    </g>
</svg>
