<svg xmlns="http://www.w3.org/2000/svg" width="49" height="50" viewBox="0 0 49 50">
    <g fill="#FFF">
        <path d="M37.486 36.102c.45 0 .815-.367.815-.818V32.83h3.26c3.599.002 6.667-2.616 7.244-6.182.577-3.565-1.508-7.024-4.922-8.165.082-.393.123-.793.123-1.195.008-1.558-.62-3.051-1.738-4.133-1.118-1.08-2.629-1.654-4.18-1.588C36.99 5.393 31.912.72 25.688.158c-6.223-.561-12.05 3.128-14.227 9.007-1.863-.247-3.742.324-5.157 1.565-1.415 1.242-2.228 3.036-2.232 4.922 0 .604.082 1.204.245 1.785-3.295 1.767-4.97 5.557-4.065 9.195.906 3.638 4.16 6.192 7.895 6.198h2.445v2.454c0 .451.365.818.815.818h6.52v4.907h-7.485c-.397-1.126-1.545-1.802-2.718-1.6-1.174.202-2.032 1.223-2.032 2.418s.858 2.217 2.032 2.419c1.173.202 2.321-.474 2.718-1.6h8.3c.45 0 .815-.367.815-.819v-5.725h4.075v8.33c-1.123.398-1.796 1.55-1.595 2.728.202 1.178 1.22 2.04 2.41 2.04 1.19 0 2.208-.862 2.41-2.04.2-1.178-.472-2.33-1.595-2.728v-8.33h4.074v5.725c0 .452.365.818.815.818h8.3c.397 1.127 1.545 1.803 2.719 1.6 1.173-.201 2.031-1.223 2.031-2.418s-.858-2.216-2.031-2.418c-1.174-.202-2.322.474-2.719 1.6h-7.485v-4.907h6.52zM8.147 42.645c-.45 0-.815-.366-.815-.818 0-.451.365-.818.815-.818.45 0 .815.367.815.818 0 .452-.365.818-.815.818zm16.3 4.908c-.45 0-.815-.366-.815-.818 0-.452.365-.818.815-.818.45 0 .815.366.815.818 0 .452-.365.818-.815.818zm16.3-6.544c.45 0 .814.367.814.818 0 .452-.365.818-.815.818-.45 0-.815-.366-.815-.818 0-.451.365-.818.815-.818zM10.591 28.74v2.455H8.147c-3.106.001-5.782-2.2-6.391-5.257-.61-3.058 1.016-6.122 3.885-7.32.2-.084.359-.244.441-.446.082-.2.081-.427-.003-.627-.25-.6-.379-1.242-.377-1.892.003-2.71 2.191-4.905 4.89-4.907.404-.003.807.048 1.198.151.422.115.86-.126.99-.546 1.72-5.527 7.054-9.095 12.798-8.561 5.745.535 10.335 5.027 11.012 10.777.026.226.145.431.329.566.183.134.414.186.636.142.246-.05.496-.074.746-.075 2.25.002 4.073 1.832 4.075 4.09.002.503-.09 1.002-.27 1.472-.088.224-.072.476.043.688.115.212.318.362.553.41 2.867.591 4.823 3.263 4.529 6.185-.294 2.922-2.744 5.147-5.67 5.15h-3.26V28.74c0-.452-.365-.818-.815-.818h-1.63v-1.636h1.63c.45 0 .815-.366.815-.818v-6.544c0-.451-.365-.818-.815-.818H11.407c-.45 0-.815.367-.815.818v6.544c0 .452.365.818.815.818h1.63v1.636h-1.63c-.45 0-.815.366-.815.818zm1.63-4.089v-4.908h24.45v4.908h-24.45zm2.445 1.636h19.56v1.636h-19.56v-1.636zm-2.445 3.272h24.45v4.908h-24.45v-4.908z"/>
        <path d="M17.112 22.196c0 .904-.73 1.636-1.63 1.636-.9 0-1.63-.732-1.63-1.636 0-.903.73-1.636 1.63-1.636.9 0 1.63.733 1.63 1.636zM17.112 32.012c0 .903-.73 1.636-1.63 1.636-.9 0-1.63-.733-1.63-1.636 0-.904.73-1.636 1.63-1.636.9 0 1.63.732 1.63 1.636z"/>
    </g>
</svg>
