<svg xmlns="http://www.w3.org/2000/svg" xmlns:xlink="http://www.w3.org/1999/xlink" width="410" height="431" viewBox="0 0 410 431">
    <defs>
        <path id="prefix__a" d="M2.34 4.706c1.1 0 2-.9 2-2s-.9-2-2-2-2 .9-2 2 .9 2 2 2zm0 2c-1.1 0-2 .9-2 2s.9 2 2 2 2-.9 2-2-.9-2-2-2zm0 6c-1.1 0-2 .9-2 2s.9 2 2 2 2-.9 2-2-.9-2-2-2z"/>
        <path id="prefix__c" d="M2.34 4.706c1.1 0 2-.9 2-2s-.9-2-2-2-2 .9-2 2 .9 2 2 2zm0 2c-1.1 0-2 .9-2 2s.9 2 2 2 2-.9 2-2-.9-2-2-2zm0 6c-1.1 0-2 .9-2 2s.9 2 2 2 2-.9 2-2-.9-2-2-2z"/>
        <path id="prefix__e" d="M2.34 4.706c1.1 0 2-.9 2-2s-.9-2-2-2-2 .9-2 2 .9 2 2 2zm0 2c-1.1 0-2 .9-2 2s.9 2 2 2 2-.9 2-2-.9-2-2-2zm0 6c-1.1 0-2 .9-2 2s.9 2 2 2 2-.9 2-2-.9-2-2-2z"/>
        <path id="prefix__g" d="M2.34 4.706c1.1 0 2-.9 2-2s-.9-2-2-2-2 .9-2 2 .9 2 2 2zm0 2c-1.1 0-2 .9-2 2s.9 2 2 2 2-.9 2-2-.9-2-2-2zm0 6c-1.1 0-2 .9-2 2s.9 2 2 2 2-.9 2-2-.9-2-2-2z"/>
    </defs>
    <g fill="none" fill-rule="evenodd">
        <rect width="410" height="431.001" fill="#FFF" rx="4"/>
        <g transform="translate(20.077 20.071)">
            <text fill="#000" font-family="Helvetica" font-size="14">
                <tspan x="0" y="14.478">Common Repairs</tspan>
            </text>
            <text fill="#1F78B4" font-family="Helvetica" font-size="9">
                <tspan x="250.848" y="12.751">SEE ALL POSSIBLE </tspan> <tspan x="250.848" y="23.751">FIXES</tspan>
            </text>
            <ellipse cx="27.404" cy="86.4" fill="#EEE" rx="21.08" ry="21.073"/>
            <ellipse cx="27.404" cy="160.156" fill="#EEE" rx="21.08" ry="21.073"/>
            <ellipse cx="27.404" cy="233.912" fill="#EEE" rx="21.08" ry="21.073"/>
            <ellipse cx="27.404" cy="308.722" fill="#EEE" rx="21.08" ry="21.073"/>
        </g>
        <g transform="translate(368.562 98.235)">
            <mask id="prefix__b" fill="#fff">
                <use xlink:href="#prefix__a"/>
            </mask>
            <g fill="#000" fill-opacity=".54" mask="url(#prefix__b)">
                <path d="M0 0H12.68V25.412H0z" transform="translate(-4 -4)"/>
            </g>
        </g>
        <g transform="translate(368.562 246.47)">
            <mask id="prefix__d" fill="#fff">
                <use xlink:href="#prefix__c"/>
            </mask>
            <g fill="#000" fill-opacity=".54" mask="url(#prefix__d)">
                <path d="M0 0H12.68V25.412H0z" transform="translate(-4 -4)"/>
            </g>
        </g>
        <g transform="translate(368.562 172.353)">
            <mask id="prefix__f" fill="#fff">
                <use xlink:href="#prefix__e"/>
            </mask>
            <g fill="#000" fill-opacity=".54" mask="url(#prefix__f)">
                <path d="M0 0H12.68V25.412H0z" transform="translate(-4 -4)"/>
            </g>
        </g>
        <g transform="translate(368.562 321.647)">
            <mask id="prefix__h" fill="#fff">
                <use xlink:href="#prefix__g"/>
            </mask>
            <g fill="#000" fill-opacity=".54" mask="url(#prefix__h)">
                <path d="M0 0H12.68V25.412H0z" transform="translate(-4 -4)"/>
            </g>
        </g>
        <g fill="#000" font-family="Helvetica">
            <text font-size="14" transform="translate(96.16 88.941)">
                <tspan x="0" y="14.566">Change Part</tspan>
            </text>
            <text font-size="10" transform="translate(96.16 88.941)">
                <tspan x="0" y="35.322">Some description about the fix…</tspan>
            </text>
        </g>
        <g fill="#000" font-family="Helvetica">
            <text font-size="14" transform="translate(96.16 164.118)">
                <tspan x="0" y="14.497">Apply Oil</tspan>
            </text>
            <text font-size="10" transform="translate(96.16 164.118)">
                <tspan x="0" y="35.322">Some description about the fix…</tspan>
            </text>
        </g>
        <g fill="#000" font-family="Helvetica">
            <text font-size="14" transform="translate(91.933 238.235)">
                <tspan x="0" y="14.505">Replacement of Saddle Bearing</tspan>
            </text>
            <text font-size="10" transform="translate(91.933 238.235)">
                <tspan x="0" y="35.322">Some description about the fix…</tspan>
            </text>
        </g>
        <g fill="#000" font-family="Helvetica">
            <text font-size="14" transform="translate(91.933 312.353)">
                <tspan x="0" y="14.497">Remanufacturing Cylinder Block</tspan>
            </text>
            <text font-size="10" transform="translate(91.933 312.353)">
                <tspan x="0" y="35.322">Some description about the fix…</tspan>
            </text>
        </g>
        <g fill="#1F78B4" fill-rule="nonzero" opacity=".598">
            <path d="M20.228 15.898c-1.892-1.896-1.768-1.776-1.821-1.815L13.4 10.38l1.942-1.946c1.562.558 3.33.172 4.52-1.02 1.296-1.3 1.637-3.285.847-4.942-.184-.386-.695-.473-.996-.171L18.11 3.904c-.24.242-.634.242-.875 0-.242-.242-.242-.634 0-.877l1.601-1.604c.302-.303.214-.814-.17-.998-1.654-.792-3.636-.45-4.932.848-1.19 1.193-1.575 2.964-1.019 4.529l-2.24 2.244c-.456-.355.146.252-4.15-4.312l.45-.451c.286-.286.226-.764-.118-.97L3.343.318C2.473-.203 1.366-.067.65.651-.067 1.37-.203 2.48.318 3.35l1.99 3.321c.206.346.683.405.968.12l.424-.426c4.274 4.54 3.711 3.924 4.049 4.36l.025.028-1.986 1.99c-1.561-.557-3.33-.172-4.52 1.02-1.296 1.3-1.636 3.285-.846 4.942.184.386.694.474.996.172l1.601-1.605c.242-.242.634-.242.876 0s.242.635 0 .877l-1.602 1.605c-.302.302-.214.814.171.998.595.284 1.231.422 1.863.422 1.127 0 2.239-.439 3.069-1.27 1.19-1.193 1.574-2.965 1.018-4.53l1.696-1.699 3.95 4.81c.03.036-.07-.066 1.697 1.704.643.645 1.498.979 2.34.979.616 0 1.225-.18 1.737-.55 1.561-1.126 1.746-3.366.394-4.72zM4.164 5.05c-.24-.255-.643-.26-.888-.013l-.315.315-1.581-2.64c-.229-.382-.17-.869.145-1.184.314-.315.8-.374 1.18-.145l2.636 1.584-.315.315c-.237.238-.242.62-.012.865C9.949 9.39 9.173 8.6 9.594 8.93l-.94.941c-.324-.418.43.407-4.49-4.821zm3.082 9.74c-.185.186-.233.47-.12.706.564 1.184.32 2.602-.605 3.53-.594.595-1.388.908-2.193.908-.144 0-.29-.01-.434-.03l.876-.878c.726-.727.726-1.904 0-2.631-.724-.726-1.902-.726-2.626 0l-.876.877c-.134-.948.176-1.93.876-2.631.926-.928 2.342-1.172 3.523-.607.236.114.519.065.704-.12l7.513-7.528c.186-.186.234-.469.12-.706-.563-1.183-.32-2.602.606-3.53.7-.701 1.68-1.012 2.626-.877l-.875.877c-.351.352-.544.819-.544 1.316 0 .497.193.964.544 1.315.724.726 1.902.726 2.626 0l.875-.877c.134.949-.175 1.93-.875 2.632-.926.928-2.342 1.171-3.523.606-.237-.113-.52-.065-.705.121L7.246 14.79zm3.741-1.993l1.528-1.531 1.557 1.152-1.86 1.864c-1.265-1.54-1.186-1.448-1.225-1.485zm8.123 6.815c-.722.521-1.787.392-2.477-.3l-1.636-1.639-1.995-2.429 2.077-2.081 2.555 1.89 1.718 1.722c.786.787.735 2.132-.242 2.837z" transform="translate(36.985 95.294)"/>
            <path d="M18.466 17.545l-2.476-2.48c-.241-.243-.633-.243-.875 0-.242.241-.242.634 0 .876l2.476 2.481c.242.242.634.242.875 0 .242-.242.242-.635 0-.877z" transform="translate(36.985 95.294)"/>
        </g>
        <g fill="#1F78B4" fill-rule="nonzero" opacity=".598">
            <path d="M20.228 15.898c-1.892-1.896-1.768-1.776-1.821-1.815L13.4 10.38l1.942-1.946c1.562.558 3.33.172 4.52-1.02 1.296-1.3 1.637-3.285.847-4.942-.184-.386-.695-.473-.996-.171L18.11 3.904c-.24.242-.634.242-.875 0-.242-.242-.242-.634 0-.877l1.601-1.604c.302-.303.214-.814-.17-.998-1.654-.792-3.636-.45-4.932.848-1.19 1.193-1.575 2.964-1.019 4.529l-2.24 2.244c-.456-.355.146.252-4.15-4.312l.45-.451c.286-.286.226-.764-.118-.97L3.343.318C2.473-.203 1.366-.067.65.651-.067 1.37-.203 2.48.318 3.35l1.99 3.321c.206.346.683.405.968.12l.424-.426c4.274 4.54 3.711 3.924 4.049 4.36l.025.028-1.986 1.99c-1.561-.557-3.33-.172-4.52 1.02-1.296 1.3-1.636 3.285-.846 4.942.184.386.694.474.996.172l1.601-1.605c.242-.242.634-.242.876 0s.242.635 0 .877l-1.602 1.605c-.302.302-.214.814.171.998.595.284 1.231.422 1.863.422 1.127 0 2.239-.439 3.069-1.27 1.19-1.193 1.574-2.965 1.018-4.53l1.696-1.699 3.95 4.81c.03.036-.07-.066 1.697 1.704.643.645 1.498.979 2.34.979.616 0 1.225-.18 1.737-.55 1.561-1.126 1.746-3.366.394-4.72zM4.164 5.05c-.24-.255-.643-.26-.888-.013l-.315.315-1.581-2.64c-.229-.382-.17-.869.145-1.184.314-.315.8-.374 1.18-.145l2.636 1.584-.315.315c-.237.238-.242.62-.012.865C9.949 9.39 9.173 8.6 9.594 8.93l-.94.941c-.324-.418.43.407-4.49-4.821zm3.082 9.74c-.185.186-.233.47-.12.706.564 1.184.32 2.602-.605 3.53-.594.595-1.388.908-2.193.908-.144 0-.29-.01-.434-.03l.876-.878c.726-.727.726-1.904 0-2.631-.724-.726-1.902-.726-2.626 0l-.876.877c-.134-.948.176-1.93.876-2.631.926-.928 2.342-1.172 3.523-.607.236.114.519.065.704-.12l7.513-7.528c.186-.186.234-.469.12-.706-.563-1.183-.32-2.602.606-3.53.7-.701 1.68-1.012 2.626-.877l-.875.877c-.351.352-.544.819-.544 1.316 0 .497.193.964.544 1.315.724.726 1.902.726 2.626 0l.875-.877c.134.949-.175 1.93-.875 2.632-.926.928-2.342 1.171-3.523.606-.237-.113-.52-.065-.705.121L7.246 14.79zm3.741-1.993l1.528-1.531 1.557 1.152-1.86 1.864c-1.265-1.54-1.186-1.448-1.225-1.485zm8.123 6.815c-.722.521-1.787.392-2.477-.3l-1.636-1.639-1.995-2.429 2.077-2.081 2.555 1.89 1.718 1.722c.786.787.735 2.132-.242 2.837z" transform="translate(36.985 170.47)"/>
            <path d="M18.466 17.545l-2.476-2.48c-.241-.243-.633-.243-.875 0-.242.241-.242.634 0 .876l2.476 2.481c.242.242.634.242.875 0 .242-.242.242-.635 0-.877z" transform="translate(36.985 170.47)"/>
        </g>
        <g fill="#1F78B4" fill-rule="nonzero" opacity=".598">
            <path d="M20.228 15.898c-1.892-1.896-1.768-1.776-1.821-1.815L13.4 10.38l1.942-1.946c1.562.558 3.33.172 4.52-1.02 1.296-1.3 1.637-3.285.847-4.942-.184-.386-.695-.473-.996-.171L18.11 3.904c-.24.242-.634.242-.875 0-.242-.242-.242-.634 0-.877l1.601-1.604c.302-.303.214-.814-.17-.998-1.654-.792-3.636-.45-4.932.848-1.19 1.193-1.575 2.964-1.019 4.529l-2.24 2.244c-.456-.355.146.252-4.15-4.312l.45-.451c.286-.286.226-.764-.118-.97L3.343.318C2.473-.203 1.366-.067.65.651-.067 1.37-.203 2.48.318 3.35l1.99 3.321c.206.346.683.405.968.12l.424-.426c4.274 4.54 3.711 3.924 4.049 4.36l.025.028-1.986 1.99c-1.561-.557-3.33-.172-4.52 1.02-1.296 1.3-1.636 3.285-.846 4.942.184.386.694.474.996.172l1.601-1.605c.242-.242.634-.242.876 0s.242.635 0 .877l-1.602 1.605c-.302.302-.214.814.171.998.595.284 1.231.422 1.863.422 1.127 0 2.239-.439 3.069-1.27 1.19-1.193 1.574-2.965 1.018-4.53l1.696-1.699 3.95 4.81c.03.036-.07-.066 1.697 1.704.643.645 1.498.979 2.34.979.616 0 1.225-.18 1.737-.55 1.561-1.126 1.746-3.366.394-4.72zM4.164 5.05c-.24-.255-.643-.26-.888-.013l-.315.315-1.581-2.64c-.229-.382-.17-.869.145-1.184.314-.315.8-.374 1.18-.145l2.636 1.584-.315.315c-.237.238-.242.62-.012.865C9.949 9.39 9.173 8.6 9.594 8.93l-.94.941c-.324-.418.43.407-4.49-4.821zm3.082 9.74c-.185.186-.233.47-.12.706.564 1.184.32 2.602-.605 3.53-.594.595-1.388.908-2.193.908-.144 0-.29-.01-.434-.03l.876-.878c.726-.727.726-1.904 0-2.631-.724-.726-1.902-.726-2.626 0l-.876.877c-.134-.948.176-1.93.876-2.631.926-.928 2.342-1.172 3.523-.607.236.114.519.065.704-.12l7.513-7.528c.186-.186.234-.469.12-.706-.563-1.183-.32-2.602.606-3.53.7-.701 1.68-1.012 2.626-.877l-.875.877c-.351.352-.544.819-.544 1.316 0 .497.193.964.544 1.315.724.726 1.902.726 2.626 0l.875-.877c.134.949-.175 1.93-.875 2.632-.926.928-2.342 1.171-3.523.606-.237-.113-.52-.065-.705.121L7.246 14.79zm3.741-1.993l1.528-1.531 1.557 1.152-1.86 1.864c-1.265-1.54-1.186-1.448-1.225-1.485zm8.123 6.815c-.722.521-1.787.392-2.477-.3l-1.636-1.639-1.995-2.429 2.077-2.081 2.555 1.89 1.718 1.722c.786.787.735 2.132-.242 2.837z" transform="translate(36.985 244.588)"/>
            <path d="M18.466 17.545l-2.476-2.48c-.241-.243-.633-.243-.875 0-.242.241-.242.634 0 .876l2.476 2.481c.242.242.634.242.875 0 .242-.242.242-.635 0-.877z" transform="translate(36.985 244.588)"/>
        </g>
        <g fill="#1F78B4" fill-rule="nonzero" opacity=".598">
            <path d="M20.228 15.898c-1.892-1.896-1.768-1.776-1.821-1.815L13.4 10.38l1.942-1.946c1.562.558 3.33.172 4.52-1.02 1.296-1.3 1.637-3.285.847-4.942-.184-.386-.695-.473-.996-.171L18.11 3.904c-.24.242-.634.242-.875 0-.242-.242-.242-.634 0-.877l1.601-1.604c.302-.303.214-.814-.17-.998-1.654-.792-3.636-.45-4.932.848-1.19 1.193-1.575 2.964-1.019 4.529l-2.24 2.244c-.456-.355.146.252-4.15-4.312l.45-.451c.286-.286.226-.764-.118-.97L3.343.318C2.473-.203 1.366-.067.65.651-.067 1.37-.203 2.48.318 3.35l1.99 3.321c.206.346.683.405.968.12l.424-.426c4.274 4.54 3.711 3.924 4.049 4.36l.025.028-1.986 1.99c-1.561-.557-3.33-.172-4.52 1.02-1.296 1.3-1.636 3.285-.846 4.942.184.386.694.474.996.172l1.601-1.605c.242-.242.634-.242.876 0s.242.635 0 .877l-1.602 1.605c-.302.302-.214.814.171.998.595.284 1.231.422 1.863.422 1.127 0 2.239-.439 3.069-1.27 1.19-1.193 1.574-2.965 1.018-4.53l1.696-1.699 3.95 4.81c.03.036-.07-.066 1.697 1.704.643.645 1.498.979 2.34.979.616 0 1.225-.18 1.737-.55 1.561-1.126 1.746-3.366.394-4.72zM4.164 5.05c-.24-.255-.643-.26-.888-.013l-.315.315-1.581-2.64c-.229-.382-.17-.869.145-1.184.314-.315.8-.374 1.18-.145l2.636 1.584-.315.315c-.237.238-.242.62-.012.865C9.949 9.39 9.173 8.6 9.594 8.93l-.94.941c-.324-.418.43.407-4.49-4.821zm3.082 9.74c-.185.186-.233.47-.12.706.564 1.184.32 2.602-.605 3.53-.594.595-1.388.908-2.193.908-.144 0-.29-.01-.434-.03l.876-.878c.726-.727.726-1.904 0-2.631-.724-.726-1.902-.726-2.626 0l-.876.877c-.134-.948.176-1.93.876-2.631.926-.928 2.342-1.172 3.523-.607.236.114.519.065.704-.12l7.513-7.528c.186-.186.234-.469.12-.706-.563-1.183-.32-2.602.606-3.53.7-.701 1.68-1.012 2.626-.877l-.875.877c-.351.352-.544.819-.544 1.316 0 .497.193.964.544 1.315.724.726 1.902.726 2.626 0l.875-.877c.134.949-.175 1.93-.875 2.632-.926.928-2.342 1.171-3.523.606-.237-.113-.52-.065-.705.121L7.246 14.79zm3.741-1.993l1.528-1.531 1.557 1.152-1.86 1.864c-1.265-1.54-1.186-1.448-1.225-1.485zm8.123 6.815c-.722.521-1.787.392-2.477-.3l-1.636-1.639-1.995-2.429 2.077-2.081 2.555 1.89 1.718 1.722c.786.787.735 2.132-.242 2.837z" transform="translate(36.985 319.765)"/>
            <path d="M18.466 17.545l-2.476-2.48c-.241-.243-.633-.243-.875 0-.242.241-.242.634 0 .876l2.476 2.481c.242.242.634.242.875 0 .242-.242.242-.635 0-.877z" transform="translate(36.985 319.765)"/>
        </g>
    </g>
</svg>
