<svg xmlns="http://www.w3.org/2000/svg" width="50" height="50" viewBox="0 0 50 50">
    <g fill="none">
        <path fill="#000" d="M4.839 16.129L8.065 16.129 8.065 17.742 4.839 17.742z"/>
        <path fill="#FFF" d="M47.58 12.903c1.334 0 2.42-1.085 2.42-2.42V2.42C50 1.086 48.914 0 47.58 0H36.29c-1.333 0-2.419 1.086-2.419 2.42v8.064c0 1.334 1.086 2.42 2.42 2.42h2.419v1.612h-1.613v1.613h4.032v8.065h-3.328c-.644-.629-1.436-1.11-2.323-1.374.004-.081.006-.16.006-.24 0-3.557-2.894-6.451-6.452-6.451-2.207 0-4.258 1.148-5.433 2.985-.828-.372-1.723-.566-2.631-.566-2.677 0-5.087 1.687-6.03 4.162-.612.131-1.183.367-1.702.677H7.258v-2.42h3.226c1.334 0 2.42-1.085 2.42-2.419V2.42c0-1.333-1.086-2.419-2.42-2.419H2.419C1.086 0 0 1.086 0 2.42v16.128c0 1.334 1.086 2.42 2.42 2.42h3.225V25h5.876c-.343.49-.61 1.03-.784 1.613H7.258v8.87H4.032c-1.333 0-2.42 1.087-2.42 2.42v7.258H0v2.42C0 48.914 1.086 50 2.42 50h12.903c1.333 0 2.419-1.086 2.419-2.42v-2.419h-1.613v-7.258c0-1.333-1.086-2.42-2.42-2.42H8.872v-7.257h1.613c0 3.112 2.533 5.645 5.645 5.645h17.742c2.838 0 5.187-2.108 5.58-4.839h3.29v6.452h-5.644V50H50V35.484h-5.645v-8.065h-4.907c-.083-.567-.258-1.108-.501-1.613h3.795V16.13h4.032v-1.613h-1.613v-1.613h2.42zm-36.29 0H1.613V4.84h9.677v8.064zM2.42 1.613h8.064c.445 0 .806.361.806.806v.807H1.613v-.807c0-.445.361-.806.806-.806zm-.807 16.935v-4.032h9.677v4.032c0 .445-.361.807-.806.807H2.419c-.445 0-.806-.362-.806-.807zm14.516 29.033c0 .445-.361.806-.806.806H2.419c-.445 0-.806-.361-.806-.806v-.807h14.516v.807zm-1.613-9.678v7.258H3.226v-7.258c0-.445.361-.806.806-.806h9.678c.445 0 .806.361.806.806zM38.71 48.387v-4.839h9.677v4.84H38.71zm9.677-6.452H38.71v-4.838h9.677v4.838zm-14.516-9.677H16.129c-2.223 0-4.032-1.809-4.032-4.032 0-2.039 1.526-3.758 3.548-4l.53-.064.149-.512c.596-2.054 2.507-3.489 4.644-3.489.89 0 1.764.25 2.53.722l.77.475.384-.82c.794-1.7 2.513-2.796 4.38-2.796 2.669 0 4.839 2.17 4.839 4.839 0 .222-.02.46-.064.745l-.122.798.798.121c1.95.298 3.42 2.01 3.42 3.98 0 2.224-1.809 4.033-4.032 4.033zm2.42-30.645h11.29c.445 0 .806.361.806.806v5.646H35.484V2.419c0-.445.361-.806.806-.806zm-.807 8.87v-.806h12.903v.807c0 .445-.361.806-.806.806H36.29c-.446 0-.807-.361-.807-.806zm8.064 4.033h-3.225v-1.613h3.225v1.613z"/>
        <path fill="#000" d="M40.323 38.71L41.935 38.71 41.935 40.323 40.323 40.323zM45.161 45.161L46.774 45.161 46.774 46.774 45.161 46.774zM43.548 38.71L46.774 38.71 46.774 40.323 43.548 40.323zM40.323 45.161L43.548 45.161 43.548 46.774 40.323 46.774z"/>
    </g>
</svg>
