<svg xmlns="http://www.w3.org/2000/svg" width="364" height="326" viewBox="0 0 364 326">
    <g fill="none" fill-rule="evenodd">
        <path fill="#2380C0" d="M174.5 13.714c-80.912 0-146.742 65.623-146.742 146.287 0 80.662 65.83 146.285 146.743 146.285 80.911 0 146.74-65.623 146.74-146.285 0-80.664-65.829-146.287-146.74-146.287m0 306.286C86.003 320 14 248.224 14 160 14 71.778 86.003 0 174.5 0S335 71.777 335 160c0 88.224-72.003 160-160.5 160"/>
        <path fill="#2380C0" d="M178.993 308L169.788 201.579 93.872 215.051 31 171.281 116.535 118.718 141.457 118.718 168.819 182.918 268.171 187.262 202.964 64.86 135.287 114.767 65.604 54.705 294.803 50 294.891 54.583 77.634 59.04 135.51 108.925 204.503 58.046 275.967 192.188 165.758 187.369 138.449 123.299 117.816 123.299 39.346 171.52 94.923 210.211 173.898 196.197 182.917 300.507 283.457 243.363 283.457 183.918 325.474 155.752 328 159.563 288.013 186.371 288.013 246.033z"/>
        <path fill="#1FA0F3" d="M93 59c0 14.36-11.64 26-26 26S41 73.36 41 59c0-14.358 11.64-26 26-26s26 11.642 26 26M52 164c0 14.36-11.64 26-26 26S0 178.36 0 164s11.64-26 26-26 26 11.64 26 26M162 113c0 14.36-11.64 26-26 26s-26-11.64-26-26 11.64-26 26-26 26 11.64 26 26M226 59c0 14.36-11.64 26-26 26s-26-11.64-26-26c0-14.358 11.64-26 26-26s26 11.642 26 26M319 59c0 14.36-11.64 26-26 26s-26-11.64-26-26c0-14.358 11.64-26 26-26s26 11.642 26 26M364 158c0 14.358-11.64 26-26 26s-26-11.642-26-26c0-14.36 11.64-26 26-26s26 11.64 26 26M300 190c0 14.36-11.64 26-26 26s-26-11.64-26-26 11.64-26 26-26 26 11.64 26 26M194 187c0 14.36-11.64 26-26 26s-26-11.64-26-26c0-14.358 11.64-26 26-26s26 11.642 26 26M130 214c0 14.36-11.64 26-26 26s-26-11.64-26-26 11.64-26 26-26 26 11.64 26 26M208 300c0 14.36-11.64 26-26 26s-26-11.64-26-26 11.64-26 26-26 26 11.64 26 26M313 259c0 14.36-11.64 26-26 26s-26-11.64-26-26 11.64-26 26-26 26 11.64 26 26"/>
    </g>
</svg>
