<svg xmlns="http://www.w3.org/2000/svg" width="70" height="41" viewBox="0 0 70 41">
    <path fill="#FFF" d="M49.254 0C43.737 0 38.719 2.143 35 5.624 31.28 2.142 26.263 0 20.747 0 9.307 0 0 9.196 0 20.5 0 31.803 9.307 41 20.747 41 26.263 41 31.28 38.857 35 35.376 38.72 38.858 43.737 41 49.254 41 60.693 41 70 31.803 70 20.5 70 9.196 60.693 0 49.254 0zM20.747 39.159c-10.414 0-18.884-8.372-18.884-18.659 0-10.288 8.471-18.659 18.884-18.659 5.014 0 9.567 1.954 12.95 5.116-3.227 3.615-5.19 8.356-5.19 13.544 0 5.188 1.963 9.929 5.19 13.544-3.383 3.16-7.936 5.114-12.95 5.114zM30.369 20.5c0-4.666 1.755-8.928 4.63-12.203 2.876 3.275 4.632 7.537 4.632 12.203 0 4.666-1.756 8.928-4.631 12.202-2.876-3.274-4.63-7.536-4.63-12.202zM49.254 39.16c-5.014 0-9.568-1.954-12.95-5.116 3.226-3.615 5.19-8.356 5.19-13.544 0-5.188-1.964-9.93-5.19-13.544 3.383-3.162 7.936-5.116 12.95-5.116 10.413 0 18.883 8.37 18.883 18.66 0 10.287-8.47 18.66-18.883 18.66zM36.236 11.87h-2.755v-.921h2.755v.92zM33.733 29.13h2.756v.92h-2.756v-.92zm4.406-14h-6.055v-.92h6.055v.92zm.582 2.954h-7.703v-.92h7.703v.92zm.271 2.11v.92h-7.985v-.92h7.985zM31.405 23.2h7.187v.92h-7.187v-.92zm.679 2.937h5.473v.92h-5.473v-.92z"/>
</svg>
