<svg xmlns="http://www.w3.org/2000/svg" xmlns:xlink="http://www.w3.org/1999/xlink" width="157" height="25" viewBox="0 0 157 25">
    <defs>
        <path id="prefix__a" d="M0.148 0.033L7 0.033 7 6.885 0.148 6.885z"/>
        <path id="prefix__c" d="M0 25L157 25 157 0 0 0z"/>
    </defs>
    <g fill="none" fill-rule="evenodd">
        <path fill="#FEFEFE" d="M128.729 5.463l.023-.022c1.59-1.503 2.91-1.502 4.5.003.61.583 1.453.945 2.388.945 1.856 0 3.36-1.432 3.36-3.195C139 1.428 137.496 0 135.64 0c-.94 0-1.79.365-2.399.954-1.582 1.492-2.897 1.493-4.478.003-.61-.59-1.459-.957-2.398-.957C124.504 0 123 1.428 123 3.194c0 .885.38 1.687.993 2.265 1.587 1.511 1.587 2.765 0 4.276-.613.578-.993 1.378-.993 2.263s.378 1.685.989 2.263c1.588 1.51 1.591 2.763.01 4.272-.617.58-.999 1.383-.999 2.272 0 1.763 1.504 3.195 3.365 3.195 1.856 0 3.36-1.432 3.36-3.195 0-.888-.38-1.69-.995-2.269-1.584-1.509-1.582-2.762.003-4.271l.015-.015c1.593-1.508 2.914-1.507 4.508.003.609.58 1.451.94 2.384.94 1.856 0 3.36-1.429 3.36-3.195 0-1.763-1.504-3.19-3.36-3.19-.935 0-1.779.36-2.388.942-1.59 1.506-2.91 1.506-4.5.003l-.023-.021c-1.582-1.509-1.582-2.761 0-4.27"/>
        <path fill="#A7A7A7" d="M144.502 9C142.565 9 141 10.565 141 12.498c0 1.937 1.565 3.502 3.502 3.502 1.933 0 3.498-1.565 3.498-3.502C148 10.565 146.435 9 144.502 9"/>
        <g transform="translate(150 9)">
            <mask id="prefix__b" fill="#fff">
                <use xlink:href="#prefix__a"/>
            </mask>
            <path fill="#A7A7A7" d="M3.576.033C1.68.033.148 1.565.148 3.457c0 1.896 1.532 3.428 3.428 3.428C5.468 6.885 7 5.353 7 3.457 7 1.565 5.468.033 3.576.033" mask="url(#prefix__b)"/>
        </g>
        <path fill="#A7A7A7" d="M144.502 0C142.565 0 141 1.564 141 3.5c0 1.931 1.565 3.5 3.502 3.5C146.435 7 148 5.431 148 3.5c0-1.936-1.565-3.5-3.498-3.5M135.502 18c-1.937 0-3.502 1.564-3.502 3.5 0 1.931 1.565 3.5 3.502 3.5 1.933 0 3.498-1.569 3.498-3.5 0-1.936-1.565-3.5-3.498-3.5M144.502 18c-1.937 0-3.502 1.564-3.502 3.5 0 1.931 1.565 3.5 3.502 3.5 1.933 0 3.498-1.569 3.498-3.5 0-1.936-1.565-3.5-3.498-3.5"/>
        <path fill="#FEFEFE" d="M7 24L7 1 22 1 22 5.25 11.621 5.25 11.621 10.927 20.862 10.927 20.862 15.047 11.654 15.047 11.654 24zM35.618 16.5c0-3.029-1.976-4.56-4.118-4.56-2.141 0-4.118 1.531-4.118 4.56 0 2.996 1.977 4.56 4.118 4.56 2.142 0 4.118-1.531 4.118-4.56m4.382 0c0 4.917-3.657 8.5-8.5 8.5S23 21.417 23 16.5c0-4.95 3.657-8.5 8.5-8.5s8.5 3.55 8.5 8.5M52 12.387c-.5-.097-.933-.129-1.334-.129-2.266 0-4.233 1.064-4.233 4.484V24H42V8.13h4.3v2.354C47.3 8.387 49.567 8 50.967 8c.366 0 .7.032 1.033.064v4.323zM65.678 14.676c-.065-1.596-1.121-3.159-3.629-3.159-2.276 0-3.53 1.694-3.629 3.16h7.258zm4.091 5.243C68.945 22.688 66.371 25 62.38 25 57.926 25 54 21.841 54 16.435 54 11.322 57.827 8 61.984 8 66.998 8 70 11.16 70 16.305c0 .618-.066 1.27-.066 1.335H58.322c.098 2.116 1.913 3.647 4.09 3.647 2.046 0 3.168-1.01 3.695-2.442l3.662 1.074zM79.906 7.006H83v4.02h-3.094v7.014c0 1.464.625 1.941 1.813 1.941.5 0 1.062-.067 1.281-.136v3.747c-.375.17-1.125.408-2.344.408-3 0-4.875-1.941-4.875-5.177v-7.798H73V7.006h.781c1.625 0 2.375-1.158 2.375-2.656V2h3.75v5.006zM96.679 14.676c-.066-1.596-1.122-3.159-3.63-3.159-2.276 0-3.53 1.694-3.629 3.16h7.259zm4.09 5.243C99.945 22.688 97.372 25 93.38 25 88.926 25 85 21.841 85 16.435 85 11.322 88.827 8 92.984 8 97.998 8 101 11.16 101 16.305c0 .618-.066 1.27-.066 1.335H89.322c.098 2.116 1.913 3.647 4.09 3.647 2.046 0 3.168-1.01 3.695-2.442l3.662 1.074z"/>
        <mask id="prefix__d" fill="#fff">
            <use xlink:href="#prefix__c"/>
        </mask>
        <path fill="#FEFEFE" d="M104 24L108 24 108 0 104 0zM112 24L116 24 116 0 112 0zM2.025 1.9c.246 0 .383-.119.383-.32 0-.21-.137-.33-.383-.33H1.74v.65h.285zM1.74 3.07h-.416V.893h.76c.428 0 .745.297.745.682 0 .303-.197.552-.481.644l.492.85h-.476l-.46-.812H1.74v.813zm.252.535c.875 0 1.565-.698 1.565-1.608 0-.909-.69-1.602-1.565-1.602S.427 1.088.427 1.997c0 .91.69 1.608 1.565 1.608zm0-3.605C3.102 0 4 .898 4 1.997 4 3.097 3.102 4 1.992 4 .886 4 0 3.096 0 1.997 0 .898.886 0 1.992 0z" mask="url(#prefix__d)"/>
    </g>
</svg>
