<svg xmlns="http://www.w3.org/2000/svg" width="50" height="50" viewBox="0 0 50 50">
    <g fill="#FFF">
        <path d="M33.871 36.29c0-1.334-1.086-2.419-2.42-2.419-1.333 0-2.419 1.085-2.419 2.42 0 1.05.677 1.936 1.613 2.27v1.91c-.936.335-1.613 1.222-1.613 2.272 0 1.334 1.086 2.42 2.42 2.42 1.333 0 2.419-1.086 2.419-2.42 0-1.05-.677-1.937-1.613-2.271v-1.91c.936-.335 1.613-1.222 1.613-2.272zm-2.42-.806c.445 0 .807.362.807.806 0 .445-.362.807-.806.807-.445 0-.807-.362-.807-.807 0-.444.362-.806.807-.806zm0 8.064c-.444 0-.806-.362-.806-.806 0-.444.362-.807.807-.807.444 0 .806.363.806.807 0 .444-.362.806-.806.806z"/>
        <path d="M50 13.376l-5.311-5.311H43.4c-.334-.937-1.221-1.613-2.271-1.613-1.334 0-2.42 1.085-2.42 2.419 0 1.05.677 1.937 1.614 2.27v.956h-4.505l-2.19-2.19c.152-.315.243-.663.243-1.036 0-1.334-1.086-2.42-2.42-2.42-1.333 0-2.419 1.086-2.419 2.42 0 1.334 1.086 2.42 2.42 2.42.372 0 .72-.092 1.036-.243l2.662 2.662h5.173v1.279l-2.754 2.753h-.62c-.334-.936-1.222-1.613-2.272-1.613-1.333 0-2.419 1.086-2.419 2.42 0 .372.091.72.243 1.036l-.866.865c-.412-.933-1.02-1.78-1.797-2.475-1.537-1.375-3.608-2.035-5.67-1.8-2.576.288-4.774 1.98-5.8 4.277l-.867-.867c.15-.316.24-.664.24-1.037 0-1.333-1.085-2.419-2.418-2.419-1.05 0-1.938.677-2.271 1.613h-.621l-2.754-2.753v-3.847c.937-.334 1.613-1.221 1.613-2.271 0-.582-.214-1.109-.558-1.527l4.118-4.118h5.784l3.56 3.56v3.364l-1.14 1.14h-1.428c-.334-.936-1.221-1.613-2.271-1.613-1.334 0-2.42 1.086-2.42 2.42 0 1.334 1.086 2.42 2.42 2.42 1.05 0 1.937-.677 2.27-1.614h2.096l2.085-2.085V6.785l3.56-3.56h6.266c.334.937 1.221 1.614 2.271 1.614 1.334 0 2.42-1.086 2.42-2.42 0-1.334-1.086-2.419-2.42-2.419-1.05 0-1.937.677-2.27 1.613h-6.935L25 5.31l-3.698-3.698h-7.12L9.3 6.495c-.14-.025-.282-.043-.429-.043-1.05 0-1.937.676-2.271 1.613H5.311L0 13.375v9.54l1.856 1.855c-.152.315-.243.664-.243 1.036 0 .373.091.721.243 1.037L0 28.698v7.12l4.505 4.505H6.6c.244.683.781 1.22 1.465 1.464v2.902L13.375 50h7.12L25 45.495 29.505 50h7.12l5.31-5.311v-2.902c.684-.243 1.221-.781 1.465-1.464h2.095L50 35.818v-7.12l-1.856-1.855c.152-.316.243-.664.243-1.037 0-.372-.091-.72-.243-1.036L50 22.915v-9.54zM30.645 8.87c0-.444.362-.806.807-.806.444 0 .806.362.806.806 0 .444-.362.806-.806.806-.445 0-.807-.362-.807-.806zm-11.29 4.032c-.445 0-.807-.362-.807-.806 0-.445.362-.807.807-.807.444 0 .806.362.806.807 0 .444-.362.806-.806.806zm18.548-11.29c.445 0 .807.362.807.806 0 .445-.362.807-.807.807-.444 0-.806-.362-.806-.807 0-.444.362-.806.806-.806zm3.226 6.452c.444 0 .806.362.806.806 0 .444-.362.806-.806.806-.444 0-.806-.362-.806-.806 0-.444.362-.806.806-.806zm-6.452 9.677c.445 0 .807.362.807.806 0 .445-.362.807-.807.807-.444 0-.806-.362-.806-.807 0-.444.362-.806.806-.806zM19.4 22.672c.312-2.55 2.393-4.607 4.948-4.893.222-.025.442-.037.66-.037 1.393 0 2.707.498 3.755 1.436 1.197 1.07 1.883 2.604 1.883 4.21 0 1.531-.617 2.97-1.705 4.031h-3.134v-1.76c.937-.335 1.613-1.222 1.613-2.272 0-1.334-1.085-2.42-2.419-2.42s-2.42 1.086-2.42 2.42c0 1.05.677 1.937 1.614 2.271v1.761h-3.128c-1.263-1.23-1.886-2.963-1.667-4.747zM25 38.71c-.444 0-.806-.362-.806-.807 0-.444.362-.806.806-.806.444 0 .806.362.806.806 0 .445-.362.807-.806.807zm-2.42-6.452c-.444 0-.806-.362-.806-.806v-2.42h6.452v2.42c0 .444-.362.806-.807.806h-4.838zm1.614-8.87c0-.445.362-.807.806-.807.444 0 .806.362.806.806 0 .444-.362.807-.806.807-.444 0-.806-.363-.806-.807zm-8.871-5.646c.444 0 .806.362.806.806 0 .445-.362.807-.806.807-.445 0-.807-.362-.807-.807 0-.444.362-.806.807-.806zM8.87 8.065c.444 0 .806.362.806.806 0 .444-.362.806-.806.806-.444 0-.806-.362-.806-.806 0-.444.362-.806.806-.806zM4.032 26.613c-.444 0-.806-.362-.806-.807 0-.444.362-.806.806-.806.445 0 .807.362.807.806 0 .445-.362.807-.807.807zm4.033 12.903c0-.444.362-.806.806-.806.444 0 .806.362.806.806 0 .444-.362.807-.806.807-.444 0-.806-.363-.806-.807zm11.762 8.871h-5.783l-4.367-4.366v-2.234c.937-.334 1.613-1.22 1.613-2.27 0-1.335-1.085-2.42-2.419-2.42-1.05 0-1.937.676-2.271 1.613H5.173l-3.56-3.56v-5.784l1.383-1.383c.315.152.664.243 1.036.243.373 0 .721-.091 1.037-.243l2.662 2.662h2.095c.334.936 1.22 1.613 2.27 1.613 1.335 0 2.42-1.085 2.42-2.42 0-1.333-1.085-2.419-2.42-2.419-1.05 0-1.936.677-2.27 1.613H8.398l-2.19-2.19c.152-.315.244-.663.244-1.036 0-1.333-1.086-2.419-2.42-2.419-.372 0-.72.091-1.036.243l-1.383-1.383v-8.203l4.366-4.367H6.6c.244.683.781 1.221 1.465 1.465v4.514l3.698 3.699h1.289c.333.936 1.22 1.613 2.27 1.613.373 0 .722-.091 1.037-.243l1.483 1.483c-.015.089-.034.177-.044.267-.294 2.396.586 4.728 2.363 6.317v2.66c0 1.333 1.086 2.419 2.42 2.419h1.613v1.761c-.937.334-1.613 1.221-1.613 2.271 0 1.05.676 1.937 1.613 2.271v3.847l-4.367 4.366zM11.29 29.84c0-.445.362-.807.807-.807.444 0 .806.362.806.807 0 .444-.362.806-.806.806-.445 0-.807-.362-.807-.806zM41.13 40.323c-.444 0-.806-.363-.806-.807 0-.444.362-.806.806-.806.444 0 .806.362.806.806 0 .444-.362.807-.806.807zm4.032-14.517c0-.444.362-.806.807-.806.444 0 .806.362.806.806 0 .445-.362.807-.806.807-.445 0-.807-.362-.807-.807zm3.226-3.56l-1.383 1.384c-.315-.152-.664-.243-1.036-.243-1.334 0-2.42 1.086-2.42 2.42 0 .372.092.72.243 1.036l-2.19 2.19h-1.427c-.334-.937-1.22-1.614-2.27-1.614-1.335 0-2.42 1.086-2.42 2.42 0 1.334 1.085 2.42 2.42 2.42 1.05 0 1.936-.678 2.27-1.614h2.095l2.662-2.662c.316.152.664.243 1.037.243.372 0 .72-.091 1.036-.243l1.383 1.383v5.784l-3.56 3.56H43.4c-.334-.937-1.221-1.613-2.271-1.613-1.334 0-2.42 1.085-2.42 2.42 0 1.05.677 1.936 1.614 2.27v2.234l-4.367 4.366h-5.783l-4.367-4.366v-3.847c.937-.334 1.613-1.22 1.613-2.27s-.676-1.938-1.613-2.272v-1.761h1.613c1.334 0 2.42-1.086 2.42-2.42v-2.658c1.542-1.38 2.42-3.328 2.42-5.406 0-.396-.043-.787-.107-1.173l1.49-1.489c.314.152.663.243 1.035.243 1.05 0 1.938-.677 2.271-1.613h1.29l3.697-3.699v-4.514c.684-.244 1.221-.782 1.465-1.465h.621l4.366 4.367v8.203zM38.71 29.84c0 .444-.362.806-.807.806-.444 0-.806-.362-.806-.806 0-.445.362-.807.806-.807.445 0 .807.362.807.807z"/>
        <path d="M18.548 33.871c-1.333 0-2.419 1.085-2.419 2.42 0 1.05.677 1.936 1.613 2.27v.621l-1.383 1.383c-.315-.151-.664-.242-1.036-.242-1.334 0-2.42 1.085-2.42 2.419s1.086 2.42 2.42 2.42c1.333 0 2.419-1.086 2.419-2.42 0-.373-.091-.721-.243-1.036l1.856-1.856v-1.289c.936-.334 1.613-1.22 1.613-2.27 0-1.335-1.086-2.42-2.42-2.42zm-3.225 9.677c-.445 0-.807-.362-.807-.806 0-.444.362-.807.807-.807.444 0 .806.363.806.807 0 .444-.362.806-.806.806zm3.225-6.451c-.444 0-.806-.362-.806-.807 0-.444.362-.806.806-.806.445 0 .807.362.807.806 0 .445-.362.807-.807.807z"/>
    </g>
</svg>
