<svg xmlns="http://www.w3.org/2000/svg" xmlns:xlink="http://www.w3.org/1999/xlink" width="490" height="446" viewBox="0 0 490 446">
    <defs>
        <rect id="prefix__c" width="4" height="40" x="0" y="0" rx="2"/>
        <rect id="prefix__f" width="338" height="110" x="0" y="223" rx="6"/>
        <filter id="prefix__e" width="116.3%" height="150%" x="-8.1%" y="-15.9%" filterUnits="objectBoundingBox">
            <feOffset dy="10" in="SourceAlpha" result="shadowOffsetOuter1"/>
            <feGaussianBlur in="shadowOffsetOuter1" result="shadowBlurOuter1" stdDeviation="7.5"/>
            <feComposite in="shadowBlurOuter1" in2="SourceAlpha" operator="out" result="shadowBlurOuter1"/>
            <feColorMatrix in="shadowBlurOuter1" values="0 0 0 0 0.0901960784 0 0 0 0 0.345098039 0 0 0 0 0.57254902 0 0 0 0.103392701 0"/>
        </filter>
        <path id="prefix__a" d="M6 0.667L5.06 1.607 8.78 5.333 0.667 5.333 0.667 6.667 8.78 6.667 5.06 10.393 6 11.333 11.333 6z"/>
    </defs>
    <g fill="none" fill-rule="evenodd" transform="translate(15)">
        <g>
            <g>
                <text fill="#1F78B4" font-family="Helvetica" font-size="16" letter-spacing=".15" transform="translate(19) translate(0 2)">
                    <tspan x="129" y="18">Preventive Maintenance</tspan>
                </text>
                <text fill="#1F78B4" font-family="Helvetica" font-size="16" letter-spacing=".15" transform="translate(19) translate(0 2)">
                    <tspan x="129" y="134">Coil Spring</tspan>
                </text>
                <text fill="#1F78B4" font-family="Helvetica" font-size="16" letter-spacing=".15" transform="translate(19) translate(0 2)">
                    <tspan x="129" y="367">Corrective Maintenance</tspan>
                </text>
                <text fill="#000" fill-opacity=".6" font-family="Helvetica" font-size="10" letter-spacing=".179" transform="translate(19) translate(0 2)">
                    <tspan x="129" y="45">Reached hours of use </tspan>
                </text>
                <text fill="#000" fill-opacity=".6" font-family="Helvetica" font-size="10" letter-spacing=".179" transform="translate(19) translate(0 2)">
                    <tspan x="129" y="157">Reached hours of use </tspan>
                </text>
                <text fill="#000" fill-opacity=".6" font-family="Helvetica" font-size="10" letter-spacing=".179" transform="translate(19) translate(0 2)">
                    <tspan x="129" y="394">Reached hours of use </tspan>
                </text>
                <text fill="#000" fill-opacity=".6" font-family="Helvetica" font-size="10" letter-spacing=".179" transform="translate(19) translate(0 2)">
                    <tspan x="129" y="65">No damage</tspan>
                </text>
                <text fill="#000" fill-opacity=".6" font-family="Helvetica" font-size="10" letter-spacing=".179" transform="translate(19) translate(0 2)">
                    <tspan x="129" y="86">PREVENTIVE MAINTENANCE</tspan>
                </text>
                <text fill="#000" fill-opacity=".6" font-family="Helvetica" font-size="10" letter-spacing=".179" transform="translate(19) translate(0 2)">
                    <tspan x="129" y="197">CORRECTIVE MAINTENANCE</tspan>
                </text>
                <text fill="#000" fill-opacity=".6" font-family="Helvetica" font-size="10" letter-spacing=".179" transform="translate(19) translate(0 2)">
                    <tspan x="129" y="437">Corrective Maintenance</tspan>
                </text>
                <text fill="#000" fill-opacity=".6" font-family="Helvetica" font-size="10" letter-spacing=".179" transform="translate(19) translate(0 2)">
                    <tspan x="129" y="177">No damage</tspan>
                </text>
                <text fill="#000" fill-opacity=".6" font-family="Helvetica" font-size="10" letter-spacing=".179" transform="translate(19) translate(0 2)">
                    <tspan x="129" y="414">No damage</tspan>
                </text>
                <text fill="#000" fill-opacity=".6" font-family="Helvetica" font-size="12" letter-spacing=".214" transform="translate(19) translate(0 2)">
                    <tspan x="0" y="18">07/05/2019</tspan>
                </text>
                <text fill="#000" fill-opacity=".6" font-family="Helvetica" font-size="12" letter-spacing=".214" transform="translate(19) translate(0 2)">
                    <tspan x="0" y="142">05/02/2019</tspan>
                </text>
                <text fill="#000" fill-opacity=".6" font-family="Helvetica" font-size="12" letter-spacing=".214" transform="translate(19) translate(0 2)">
                    <tspan x="0" y="366">04/05/2018</tspan>
                </text>
                <g transform="translate(19) translate(0 2) translate(79)">
                    <circle cx="13" cy="131" r="8" fill="#CFD8DC"/>
                    <circle cx="13" cy="244" r="8" fill="#CFD8DC"/>
                    <circle cx="13" cy="13" r="10" fill="#1F78B4"/>
                    <circle cx="13" cy="13" r="14" stroke="#1F78B4" stroke-width="2"/>
                    <path stroke="#CFD8DC" stroke-width="6" d="M13 34L13 136M13 136L13 238M13 238L13 340"/>
                    <path stroke="#CFD8DC" stroke-linecap="round" stroke-width="6" d="M13 389L13 441"/>
                </g>
                <g transform="translate(19) translate(0 2) translate(315 10)">
                    <mask id="prefix__b" fill="#fff">
                        <use xlink:href="#prefix__a"/>
                    </mask>
                    <g mask="url(#prefix__b)">
                        <path fill="#1F78B4" d="M0 0H16V16H0z" transform="translate(-2 -2)"/>
                    </g>
                </g>
            </g>
            <g transform="translate(19) translate(452)">
                <mask id="prefix__d" fill="#fff">
                    <use xlink:href="#prefix__c"/>
                </mask>
                <g fill="#ECEFF1" mask="url(#prefix__d)">
                    <path d="M0 0H4V40H0z"/>
                </g>
            </g>
        </g>
        <use fill="#000" filter="url(#prefix__e)" xlink:href="#prefix__f"/>
        <rect width="337" height="109" x=".5" y="223.5" fill="#FFF" stroke="#1F78B4" stroke-linejoin="square" stroke-opacity=".427" rx="6"/>
        <text fill="#1F78B4" font-family="Helvetica" font-size="16" letter-spacing=".15">
            <tspan x="148" y="248">Saddle Bearing</tspan>
        </text>
        <text fill="#000" fill-opacity=".6" font-family="Helvetica" font-size="10" letter-spacing=".179">
            <tspan x="148" y="271">Reached hours of use </tspan>
        </text>
        <text fill="#000" fill-opacity=".6" font-family="Helvetica" font-size="10" letter-spacing=".179">
            <tspan x="148" y="311">PREVENTIVE MAINTENANCE</tspan>
        </text>
        <text fill="#000" fill-opacity=".6" font-family="Helvetica" font-size="10" letter-spacing=".179">
            <tspan x="148" y="291">No damage</tspan>
        </text>
        <text fill="#000" fill-opacity=".6" font-family="Helvetica" font-size="12" letter-spacing=".214">
            <tspan x="19" y="272">04/05/2019</tspan>
        </text>
        <circle cx="111" cy="133" r="8" fill="#CFD8DC"/>
        <circle cx="111" cy="366" r="12" fill="#CFD8DC"/>
        <circle cx="111" cy="440" r="6" fill="#CFD8DC"/>
        <path stroke="#CFD8DC" stroke-width="6" d="M111 138L111 398.871"/>
        <path stroke="#1F78B4" stroke-width="6" d="M111 223L111 333"/>
        <g transform="translate(98 260)">
            <circle cx="13" cy="13" r="10" fill="#1F78B4"/>
            <circle cx="13" cy="13" r="14" stroke="#1F78B4" stroke-width="2"/>
        </g>
    </g>
</svg>
