<svg xmlns="http://www.w3.org/2000/svg" width="50" height="50" viewBox="0 0 50 50">
    <g fill="none">
        <path fill="#FFF" d="M49.91 13.655C49.91 6.125 43.771 0 36.226 0c-4.516 0-8.515 2.204-11.009 5.58l-2.677-.802c-.023-1.31-1.093-2.368-2.41-2.368-1.332 0-2.415 1.08-2.415 2.41 0 .34.073.664.203.959l-2.374 4.109c-.318-.155-.671-.25-1.048-.25-.376 0-.727.094-1.044.247l-3.21-4.055c.143-.308.23-.648.23-1.01 0-1.33-1.084-2.41-2.415-2.41S5.644 3.49 5.644 4.82c0 .648.26 1.234.679 1.668l-3.606 7.196c-.097-.012-.193-.03-.293-.03-1.331 0-2.414 1.082-2.414 2.41 0 1.329 1.083 2.41 2.414 2.41.155 0 .304-.018.45-.046l2.765 4.731C2.243 25.493.01 29.397.01 33.814c0 7.13 5.812 12.929 12.956 12.929.67 0 1.367-.061 2.128-.188l.798-.133-2.018-11.701L25.6 36.735l.133-.797c.126-.765.188-1.46.188-2.123 0-7.13-5.812-12.931-12.956-12.931-2.143 0-4.161.53-5.943 1.453L4.26 17.61c.356-.419.579-.954.579-1.546 0-.648-.261-1.234-.68-1.668l3.606-7.197c.097.012.193.03.293.03.375 0 .727-.093 1.044-.247l3.21 4.055c-.144.308-.23.649-.23 1.011 0 1.329 1.083 2.41 2.415 2.41 1.33 0 2.414-1.081 2.414-2.41 0-.341-.073-.665-.202-.96l2.373-4.108c.32.155.672.249 1.049.249.769 0 1.447-.368 1.89-.93l2.28.684c-1.114 1.975-1.756 4.248-1.756 6.672 0 6.706 4.872 12.285 11.268 13.429v1.832h-1.61v16.867c0 2.214 1.805 4.016 4.024 4.016 2.219 0 4.024-1.802 4.024-4.016V28.916h-1.61v-1.832c6.396-1.144 11.268-6.723 11.268-13.43zM14.026 45.079c-.369.038-.72.057-1.061.057-3.47 0-6.576-1.566-8.659-4.023l7.903-6.572 1.817 10.538zM24.31 33.814c0 .339-.018.689-.056 1.058l-10.563-1.814V22.527c5.917.377 10.62 5.287 10.62 11.287zM12.082 22.535v10.021L3.358 39.81c-1.095-1.742-1.739-3.793-1.739-5.996 0-3.826 1.917-7.208 4.836-9.26l.908 1.554 1.39-.81-.918-1.571c1.293-.658 2.728-1.075 4.247-1.192zM1.62 16.065c0-.444.362-.804.805-.804.444 0 .805.36.805.803 0 .443-.361.803-.805.803-.443 0-.805-.36-.805-.803zM8.06 5.621c-.445 0-.806-.36-.806-.803 0-.443.361-.803.805-.803.443 0 .805.36.805.803 0 .443-.362.803-.805.803zm6.438 7.23c-.444 0-.805-.36-.805-.804 0-.443.361-.803.805-.803.443 0 .805.36.805.803 0 .443-.362.803-.805.803zm5.634-7.23c-.444 0-.805-.36-.805-.803 0-.443.36-.803.805-.803.443 0 .804.36.804.803 0 .443-.361.803-.804.803zm4.024 8.033c0-2.267.642-4.383 1.737-6.195l1.591.476c-1.084 1.645-1.719 3.608-1.719 5.719 0 5.757 4.694 10.441 10.463 10.441 2.47 0 4.87-.88 6.759-2.477l-1.04-1.225c-1.6 1.352-3.63 2.096-5.719 2.096-4.882 0-8.853-3.964-8.853-8.835 0-1.96.65-3.765 1.734-5.231l7.13 2.137c.017.327.097.634.231.914l-3.231 3.224c-.316-.15-.663-.241-1.035-.241-1.331 0-2.415 1.081-2.415 2.41 0 1.328 1.084 2.41 2.415 2.41s2.414-1.082 2.414-2.41c0-.372-.09-.719-.242-1.033l3.231-3.224c.316.15.663.24 1.036.24 1.33 0 2.414-1.08 2.414-2.41 0-1.328-1.083-2.409-2.414-2.409-.798 0-1.502.393-1.94.99l-6.396-1.917c1.57-1.416 3.643-2.286 5.921-2.286 4.881 0 8.853 3.964 8.853 8.836 0 2.086-.746 4.112-2.1 5.706l1.227 1.039c1.6-1.885 2.483-4.28 2.483-6.745 0-5.758-4.694-10.442-10.463-10.442-3.033 0-5.76 1.303-7.673 3.367l-1.697-.508c2.216-2.722 5.591-4.466 9.37-4.466 6.657 0 12.073 5.405 12.073 12.049 0 6.643-5.416 12.048-12.073 12.048s-12.072-5.405-12.072-12.048zm13.682-3.213c0-.443.36-.803.805-.803.443 0 .804.36.804.803 0 .443-.361.803-.804.803-.444 0-.805-.36-.805-.803zm-4.83 6.425c0 .444-.36.804-.804.804-.444 0-.805-.36-.805-.804 0-.443.361-.803.805-.803.443 0 .805.36.805.803zm5.635 13.655v1.607h-4.83v-1.607h4.83zm-2.415 17.67c-1.331 0-2.414-1.08-2.414-2.409V33.735h4.829v12.048c0 1.328-1.084 2.41-2.415 2.41zm.805-19.276h-1.61v-1.648c.268.017.533.041.805.041s.537-.024.805-.04v1.647z"/>
        <path fill="#FFF" d="M17.54 49.919l.792-.131c5.46-.902 9.736-5.17 10.64-10.62l.132-.79-13.877-2.31 2.313 13.85zm1.318-1.875l-1.673-10.02 10.04 1.67c-.99 4.132-4.227 7.362-8.367 8.35z"/>
        <path fill="#000" d="M37.032 45.783c0 .444-.36.803-.805.803-.445 0-.805-.36-.805-.803 0-.443.36-.803.805-.803.445 0 .805.36.805.803z"/>
    </g>
</svg>
