<svg xmlns="http://www.w3.org/2000/svg" width="40" height="35" viewBox="0 0 40 35">
    <g fill="#050824">
        <path d="M19.91 9.92l-.004 8.759c0 .332.133.65.369.885l6.301 6.265 1.78-1.77-5.932-5.899.004-8.24H19.91z"/>
        <path d="M22.5 0C13.701 0 6.42 6.534 5.2 15H0l6.25 6.25L12.5 15H7.726C8.922 7.917 15.082 2.5 22.5 2.5c8.271 0 15 6.729 15 15 0 8.272-6.728 15-15 15-4.65 0-8.961-2.104-11.829-5.774l-1.97 1.538C12.046 32.544 17.075 35 22.5 35 32.15 35 40 27.148 40 17.5S32.15 0 22.5 0z"/>
    </g>
</svg>
