<svg xmlns="http://www.w3.org/2000/svg" width="50" height="45" viewBox="0 0 50 45">
    <g fill="#FFF">
        <path d="M42.6 11.668H8.691c-1.605 0-2.91 1.296-2.91 2.89v5.397c0 1.594 1.305 2.89 2.91 2.89h3.736c.45 0 .813-.361.813-.808 0-.446-.364-.808-.813-.808H8.692c-.708 0-1.283-.571-1.283-1.274v-5.397c0-.702.575-1.274 1.283-1.274h33.907c.708 0 1.283.572 1.283 1.274v5.397c0 .703-.575 1.274-1.283 1.274h-6.717V14.9c0-.445-.364-.807-.814-.807-.45 0-.814.362-.814.808v6.33H15.14c-.45 0-.814.361-.814.807 0 .447.364.808.814.808H42.6c1.604 0 2.91-1.296 2.91-2.89v-5.397c0-1.594-1.306-2.89-2.91-2.89z"/>
        <path d="M42.825 18.929l-.891-.886c.19-.367.291-.776.291-1.202 0-.703-.276-1.365-.777-1.862-1.034-1.028-2.717-1.028-3.751 0-.501.497-.777 1.159-.777 1.862 0 .704.276 1.366.777 1.863.517.514 1.196.77 1.875.77.416 0 .831-.097 1.21-.289l.892.887c.16.157.368.236.576.236.208 0 .416-.079.575-.236.318-.316.318-.828 0-1.143zm-2.527-1.368c-.4.397-1.05.397-1.45 0-.194-.192-.3-.448-.3-.72 0-.272.106-.527.3-.72.2-.198.462-.297.725-.297.262 0 .525.099.725.297.193.193.3.448.3.72 0 .272-.106.528-.3.72z"/>
        <path d="M46.02.074H3.98C1.785.074 0 1.847 0 4.027V9.77c0 .446.364.808.814.808.449 0 .813-.362.813-.808V4.027c0-1.289 1.056-2.337 2.353-2.337h42.04c1.297 0 2.353 1.049 2.353 2.337V31.61h-5.099c-.45 0-.814.362-.814.808 0 .446.365.808.814.808h5.099v1.481c0 1.288-1.056 2.336-2.353 2.336H3.98c-1.297 0-2.353-1.048-2.353-2.336v-1.481h38.935c.45 0 .813-.362.813-.808 0-.446-.364-.808-.813-.808H1.627V12.464c0-.446-.364-.808-.813-.808-.45 0-.814.362-.814.808v22.243c0 2.18 1.785 3.953 3.98 3.953h13.944l-2.002 4.65h-3.91c-.449 0-.813.361-.813.808 0 .446.365.808.814.808h25.974c.45 0 .814-.362.814-.808 0-.447-.365-.809-.814-.809h-3.91l-2-4.65H46.02c2.195 0 3.98-1.772 3.98-3.952V4.027c0-2.18-1.785-3.953-3.98-3.953zM32.308 43.31H17.692l1.39-3.23h11.835l1.39 3.23z"/>
        <path d="M25.676 34.495c-.187-.282-.545-.417-.874-.336-.344.086-.597.393-.614.744-.036.731.889 1.128 1.399.599.26-.27.3-.696.09-1.007z"/>
    </g>
</svg>
